{"title":"Flesh &amp; Blood - A Body Modification Documentary by Larry Silverm","uid":4288780,"size":722353664,"categoryP":"video","categoryS":"movies","magnet":"?xt=urn:btih:f5e574bf1bb84155881ff644e181120ac1dfdf58&amp;dn=Flesh+%26+Blood+-+A+Body+Modification+Documentary+by+Larry+Silverm&amp;tr=udp%3A%2F%2Ftracker.openbittorrent.com%3A80&amp;tr=udp%3A%2F%2Fopen.demonii.com%3A1337&amp;tr=udp%3A%2F%2Ftracker.coppersurfer.tk%3A6969&amp;tr=udp%3A%2F%2Fexodus.desync.com%3A6969","seeders":2,"leechers":0,"uploader":"lAsphyxial","files":1,"time":1215826352,"description":"A documentary about extreme body modification implant artist, Steve Haworth.  Through painful surgery and suspension from hooks, he does more with naked skin than a mere tattoo or piercing.\n\nGeneral\nFormat                           : AVI\nFormat/Info                      : Audio Video Interleave\nFile size                        : 689 MiB\nDuration                         : 1h 4mn\nOverall bit rate                 : 1 497 Kbps\n\nVideo\nID                               : 0\nFormat                           : MPEG-4 Visual\nFormat profile                   : AdvancedSimple@L5\nFormat settings, BVOP            : Yes\nFormat settings, QPel            : No\nFormat settings, GMC             : No warppoints\nFormat settings, Matrix          : Default (H.263)\nMuxing mode                      : Packed bitstream\nCodec ID                         : XVID\nCodec ID/Hint                    : XviD\nDuration                         : 1h 4mn\nBit rate                         : 1 357 Kbps\nWidth                            : 640 pixels\nHeight                           : 480 pixels\nDisplay aspect ratio             : 4:3\nFrame rate                       : 29.970 fps\nResolution                       : 24 bits\nColorimetry                      : 4:2:0\nScan type                        : Progressive\nBits/(Pixel*Frame)               : 0.147\nStream size                      : 625 MiB (91%)\nWriting library                  : XviD 1.1.2 (UTC 2006-11-01)\n\nAudio\nID                               : 1\nFormat                           : MPEG Audio\nFormat version                   : Version 1\nFormat profile                   : Layer 3\nCodec ID                         : 55\nCodec ID/Hint                    : MP3\nDuration                         : 1h 4mn\nBit rate mode                    : Constant\nBit rate                         : 128 Kbps\nChannel(s)                       : 2 channels\nSampling rate                    : 44.1 KHz\nResolution                       : 16 bits\nVideo delay                      : 26ms\nStream size                      : 58.9 MiB (9%)\nAlignment                        : Split accross interleaves\nInterleave, duration             : 33 ms (1.00 video frame)\nTitle                            : Audio Stream","torrent":{"xt":"urn:btih:f5e574bf1bb84155881ff644e181120ac1dfdf58","amp;dn":"Flesh+%26+Blood+-+A+Body+Modification+Documentary+by+Larry+Silverm","amp;tr":["udp%3A%2F%2Ftracker.openbittorrent.com%3A80","udp%3A%2F%2Fopen.demonii.com%3A1337","udp%3A%2F%2Ftracker.coppersurfer.tk%3A6969","udp%3A%2F%2Fexodus.desync.com%3A6969"],"infoHash":"f5e574bf1bb84155881ff644e181120ac1dfdf58","infoHashBuffer":{"type":"Buffer","data":[245,229,116,191,27,184,65,85,136,31,246,68,225,129,18,10,193,223,223,88]},"announce":[],"urlList":[]}}